# xmcd
#
# Track frame offsets: 
#        150
#        16162
#        29716
#        47989
#        66801
#        84160
#        100247
#        116934
#        135046
#        149877
#        165705
#        185065
#        199232
#        212714
#        230447
#
# Disc length: 3308 seconds
#
# Revision: 2
# Processed by: cddbd v1.5.2PL0 Copyright (c) Steve Scherf et al.
# Submitted via: ExactAudioCopy v1.0b3
#
DISCID=dc0cea0f
DTITLE=Beegie Adair - My Piano Romance
DYEAR=2010
DGENRE=Jazz
TTITLE0=Love Me Tender
TTITLE1=LOVE
TTITLE2=Smile
TTITLE3=In My Life
TTITLE4=Night and Day
TTITLE5=Fly Me To The Moon
TTITLE6=I've Got A Crush On You
TTITLE7=You Don't Have To Say You Love Me
TTITLE8=I've Got You Under My Skin
TTITLE9=Smoke Gets In Your Eyes
TTITLE10=Unforgettable
TTITLE11=Take The A Train
TTITLE12=Yesterday
TTITLE13=I Can't Help Falling In Love
TTITLE14=Ii Hi Tabidachi
EXTD=YEAR: 2010
EXTT0=
EXTT1=
EXTT2=
EXTT3=
EXTT4=
EXTT5=
EXTT6=
EXTT7=
EXTT8=
EXTT9=
EXTT10=
EXTT11=
EXTT12=
EXTT13=
EXTT14=
PLAYORDER=
